<mxfile host="app.diagrams.net" modified="2023-12-11T12:31:13.695Z" agent="Mozilla/5.0 (Windows NT 10.0; Win64; x64; rv:120.0) Gecko/20100101 Firefox/120.0" etag="hqQb7kzMmyc2QQcngtSs" version="22.1.7" type="github">
  <diagram name="Page-1" id="aZvWEqv-OABof0lBQvZ-">
    <mxGraphModel dx="6523" dy="3090" grid="1" gridSize="10" guides="1" tooltips="1" connect="1" arrows="1" fold="1" page="0" pageScale="1" pageWidth="850" pageHeight="1100" math="0" shadow="0">
      <root>
        <mxCell id="0" />
        <mxCell id="1" parent="0" />
        <mxCell id="whTFck7CV-eDJRF1kxfW-3" style="edgeStyle=orthogonalEdgeStyle;rounded=0;orthogonalLoop=1;jettySize=auto;html=1;exitX=1;exitY=0.5;exitDx=0;exitDy=0;" parent="1" source="whTFck7CV-eDJRF1kxfW-1" target="whTFck7CV-eDJRF1kxfW-5" edge="1">
          <mxGeometry relative="1" as="geometry">
            <mxPoint x="1610" y="-240" as="targetPoint" />
          </mxGeometry>
        </mxCell>
        <mxCell id="whTFck7CV-eDJRF1kxfW-1" value="&lt;div&gt;Create mission&lt;/div&gt;" style="rounded=0;whiteSpace=wrap;html=1;" parent="1" vertex="1">
          <mxGeometry x="1310" y="-270" width="120" height="60" as="geometry" />
        </mxCell>
        <mxCell id="whTFck7CV-eDJRF1kxfW-2" value="&lt;h1&gt;Mission Creator&lt;/h1&gt;&lt;p&gt;The User creates a new mission.&lt;/p&gt;&lt;p&gt;A Mission is a planning object, which combines a location, a flightplan for that location and planned flights&lt;/p&gt;&lt;p&gt;The User enters a name and description for the mission&lt;/p&gt;&lt;p&gt;&lt;br&gt;&lt;/p&gt;&lt;p&gt;&lt;br&gt;&lt;/p&gt;" style="text;html=1;strokeColor=none;fillColor=none;spacing=5;spacingTop=-20;whiteSpace=wrap;overflow=hidden;rounded=0;" parent="1" vertex="1">
          <mxGeometry x="-765" y="-100" width="190" height="210" as="geometry" />
        </mxCell>
        <mxCell id="whTFck7CV-eDJRF1kxfW-28" style="edgeStyle=orthogonalEdgeStyle;rounded=0;orthogonalLoop=1;jettySize=auto;html=1;entryX=0;entryY=0.5;entryDx=0;entryDy=0;" parent="1" source="whTFck7CV-eDJRF1kxfW-5" target="whTFck7CV-eDJRF1kxfW-25" edge="1">
          <mxGeometry relative="1" as="geometry" />
        </mxCell>
        <mxCell id="whTFck7CV-eDJRF1kxfW-5" value="Create Flightplan" style="rounded=0;whiteSpace=wrap;html=1;" parent="1" vertex="1">
          <mxGeometry x="1550" y="-270" width="120" height="60" as="geometry" />
        </mxCell>
        <mxCell id="whTFck7CV-eDJRF1kxfW-6" value="&lt;h1&gt;Flight Planner&lt;br&gt;&lt;/h1&gt;&lt;p&gt;The User has created the mission and is now tasked with selecting the flight location.&lt;/p&gt;&lt;p&gt;This includes picking a boundary on the map as well as a meet up point at the location&lt;br&gt;&lt;/p&gt;&lt;p&gt;the checkpoints are generated automatically&lt;br&gt;&lt;/p&gt;&lt;p&gt;&lt;br&gt;&lt;/p&gt;&lt;p&gt;&lt;br&gt;&lt;/p&gt;" style="text;html=1;strokeColor=none;fillColor=none;spacing=5;spacingTop=-20;whiteSpace=wrap;overflow=hidden;rounded=0;" parent="1" vertex="1">
          <mxGeometry x="-755" y="660" width="190" height="210" as="geometry" />
        </mxCell>
        <mxCell id="whTFck7CV-eDJRF1kxfW-97" style="edgeStyle=orthogonalEdgeStyle;rounded=0;orthogonalLoop=1;jettySize=auto;html=1;entryX=0.5;entryY=0;entryDx=0;entryDy=0;" parent="1" source="whTFck7CV-eDJRF1kxfW-7" target="whTFck7CV-eDJRF1kxfW-8" edge="1">
          <mxGeometry relative="1" as="geometry" />
        </mxCell>
        <mxCell id="whTFck7CV-eDJRF1kxfW-7" value="&lt;div&gt;Mission Creator&lt;/div&gt;" style="ellipse;whiteSpace=wrap;html=1;aspect=fixed;" parent="1" vertex="1">
          <mxGeometry x="-760" y="100" width="190" height="190" as="geometry" />
        </mxCell>
        <mxCell id="whTFck7CV-eDJRF1kxfW-17" style="edgeStyle=orthogonalEdgeStyle;rounded=0;orthogonalLoop=1;jettySize=auto;html=1;entryX=0;entryY=0.5;entryDx=0;entryDy=0;" parent="1" source="whTFck7CV-eDJRF1kxfW-8" target="whTFck7CV-eDJRF1kxfW-12" edge="1">
          <mxGeometry relative="1" as="geometry" />
        </mxCell>
        <mxCell id="whTFck7CV-eDJRF1kxfW-8" value="Flight planner" style="ellipse;whiteSpace=wrap;html=1;aspect=fixed;" parent="1" vertex="1">
          <mxGeometry x="-760" y="440" width="190" height="190" as="geometry" />
        </mxCell>
        <mxCell id="whTFck7CV-eDJRF1kxfW-34" style="edgeStyle=orthogonalEdgeStyle;rounded=0;orthogonalLoop=1;jettySize=auto;html=1;entryX=0;entryY=0.5;entryDx=0;entryDy=0;" parent="1" source="whTFck7CV-eDJRF1kxfW-12" target="whTFck7CV-eDJRF1kxfW-33" edge="1">
          <mxGeometry relative="1" as="geometry" />
        </mxCell>
        <mxCell id="whTFck7CV-eDJRF1kxfW-12" value="Mission Overview" style="ellipse;whiteSpace=wrap;html=1;aspect=fixed;" parent="1" vertex="1">
          <mxGeometry x="-370" y="440" width="190" height="190" as="geometry" />
        </mxCell>
        <mxCell id="whTFck7CV-eDJRF1kxfW-18" style="edgeStyle=orthogonalEdgeStyle;rounded=0;orthogonalLoop=1;jettySize=auto;html=1;entryX=1;entryY=0.5;entryDx=0;entryDy=0;" parent="1" source="whTFck7CV-eDJRF1kxfW-13" target="whTFck7CV-eDJRF1kxfW-7" edge="1">
          <mxGeometry relative="1" as="geometry" />
        </mxCell>
        <mxCell id="whTFck7CV-eDJRF1kxfW-32" value="&lt;div&gt;Create new mission&lt;/div&gt;" style="edgeLabel;html=1;align=center;verticalAlign=middle;resizable=0;points=[];" parent="whTFck7CV-eDJRF1kxfW-18" vertex="1" connectable="0">
          <mxGeometry x="-0.1174" relative="1" as="geometry">
            <mxPoint as="offset" />
          </mxGeometry>
        </mxCell>
        <mxCell id="whTFck7CV-eDJRF1kxfW-30" style="edgeStyle=orthogonalEdgeStyle;rounded=0;orthogonalLoop=1;jettySize=auto;html=1;entryX=0.5;entryY=0;entryDx=0;entryDy=0;" parent="1" source="whTFck7CV-eDJRF1kxfW-13" target="whTFck7CV-eDJRF1kxfW-12" edge="1">
          <mxGeometry relative="1" as="geometry" />
        </mxCell>
        <mxCell id="whTFck7CV-eDJRF1kxfW-31" value="&lt;div&gt;Select existing mission&lt;/div&gt;" style="edgeLabel;html=1;align=center;verticalAlign=middle;resizable=0;points=[];" parent="whTFck7CV-eDJRF1kxfW-30" vertex="1" connectable="0">
          <mxGeometry x="-0.2535" relative="1" as="geometry">
            <mxPoint as="offset" />
          </mxGeometry>
        </mxCell>
        <mxCell id="whTFck7CV-eDJRF1kxfW-13" value="&lt;div&gt;Mission List&lt;/div&gt;" style="ellipse;whiteSpace=wrap;html=1;aspect=fixed;" parent="1" vertex="1">
          <mxGeometry x="-370" y="100" width="190" height="190" as="geometry" />
        </mxCell>
        <mxCell id="whTFck7CV-eDJRF1kxfW-15" value="&lt;div&gt;name&lt;/div&gt;&lt;div&gt;owner&lt;br&gt;&lt;/div&gt;" style="text;html=1;strokeColor=none;fillColor=none;align=center;verticalAlign=middle;whiteSpace=wrap;rounded=0;" parent="1" vertex="1">
          <mxGeometry x="1430" y="-280" width="60" height="30" as="geometry" />
        </mxCell>
        <mxCell id="whTFck7CV-eDJRF1kxfW-16" value="&lt;div&gt;boundary&lt;/div&gt;&lt;div&gt;checkpoints&lt;/div&gt;&lt;div&gt;main location&lt;br&gt;&lt;/div&gt;" style="text;html=1;strokeColor=none;fillColor=none;align=center;verticalAlign=middle;whiteSpace=wrap;rounded=0;" parent="1" vertex="1">
          <mxGeometry x="1667" y="-280" width="110" height="30" as="geometry" />
        </mxCell>
        <mxCell id="whTFck7CV-eDJRF1kxfW-20" value="&lt;h1&gt;Mission List&lt;/h1&gt;&lt;p&gt;The User sees that there is a mission missing for their task&lt;/p&gt;&lt;p&gt;&lt;br&gt;&lt;/p&gt;&lt;p&gt;The user clicks the + Button to add a new mission&lt;br&gt;&lt;/p&gt;&lt;p&gt;&lt;br&gt;&lt;/p&gt;&lt;p&gt;&lt;br&gt;&lt;/p&gt;" style="text;html=1;strokeColor=none;fillColor=none;spacing=5;spacingTop=-20;whiteSpace=wrap;overflow=hidden;rounded=0;" parent="1" vertex="1">
          <mxGeometry x="-170" y="110" width="220" height="210" as="geometry" />
        </mxCell>
        <mxCell id="whTFck7CV-eDJRF1kxfW-25" value="Create Rescue Date" style="rounded=0;whiteSpace=wrap;html=1;" parent="1" vertex="1">
          <mxGeometry x="1837" y="-270" width="120" height="60" as="geometry" />
        </mxCell>
        <mxCell id="whTFck7CV-eDJRF1kxfW-29" value="&lt;h1&gt;Mission Overview&lt;br&gt;&lt;/h1&gt;The User is presented with a map of the location and the boundary on the top of the screen and a list of scheduled rescue dates. &lt;br&gt;&lt;p&gt;&lt;br&gt;&lt;/p&gt;&lt;p&gt;&lt;br&gt;&lt;/p&gt;" style="text;html=1;strokeColor=none;fillColor=none;spacing=5;spacingTop=-20;whiteSpace=wrap;overflow=hidden;rounded=0;" parent="1" vertex="1">
          <mxGeometry x="-380" y="660" width="240" height="130" as="geometry" />
        </mxCell>
        <mxCell id="whTFck7CV-eDJRF1kxfW-33" value="&lt;div&gt;Rescue Date Scheduler&lt;/div&gt;" style="ellipse;whiteSpace=wrap;html=1;aspect=fixed;" parent="1" vertex="1">
          <mxGeometry x="-30" y="440" width="190" height="190" as="geometry" />
        </mxCell>
        <mxCell id="whTFck7CV-eDJRF1kxfW-36" value="&lt;h1&gt;Rescue Date Scheduler&lt;/h1&gt;&lt;div&gt;The user specifies a date and a time&lt;/div&gt;&lt;div&gt;The user adds a aircraft from their hangar&lt;br&gt;&lt;/div&gt;&lt;div&gt;The User adds a number of participants from their friends list&lt;/div&gt;&lt;div&gt;the user adds a meeting up point&lt;br&gt;&lt;/div&gt;&lt;p&gt;&lt;br&gt;&lt;/p&gt;&lt;p&gt;all invited participants are notified and a invitation is added to their homepage&lt;br&gt;&lt;/p&gt;&lt;p&gt;&lt;br&gt;&lt;/p&gt;" style="text;html=1;strokeColor=none;fillColor=none;spacing=5;spacingTop=-20;whiteSpace=wrap;overflow=hidden;rounded=0;" parent="1" vertex="1">
          <mxGeometry x="185" y="430" width="240" height="220" as="geometry" />
        </mxCell>
        <mxCell id="whTFck7CV-eDJRF1kxfW-37" value="&lt;div&gt;participants&lt;/div&gt;&lt;div&gt;aircraft&lt;/div&gt;&lt;div&gt;date&lt;/div&gt;" style="text;html=1;strokeColor=none;fillColor=none;align=center;verticalAlign=middle;whiteSpace=wrap;rounded=0;" parent="1" vertex="1">
          <mxGeometry x="1940" y="-300" width="110" height="30" as="geometry" />
        </mxCell>
        <mxCell id="whTFck7CV-eDJRF1kxfW-38" value="&lt;div&gt;Friends List&lt;/div&gt;" style="ellipse;whiteSpace=wrap;html=1;aspect=fixed;" parent="1" vertex="1">
          <mxGeometry x="-1390" y="190" width="190" height="190" as="geometry" />
        </mxCell>
        <mxCell id="whTFck7CV-eDJRF1kxfW-39" value="&lt;h1&gt;Friends List&lt;br&gt;&lt;/h1&gt;&lt;p&gt;The User can search and join groups&lt;/p&gt;&lt;p&gt;the user can add friends&lt;/p&gt;&lt;p&gt;&lt;br&gt;&lt;/p&gt;&lt;p&gt;a user in a group is either a &lt;u&gt;helper &lt;/u&gt;or a &lt;u&gt;admin&lt;/u&gt;&lt;br&gt;&lt;/p&gt;&lt;p&gt;&lt;br&gt;&lt;/p&gt;&lt;div&gt;&lt;br&gt;&lt;/div&gt;&lt;div&gt;&lt;br&gt;&lt;/div&gt;" style="text;html=1;strokeColor=none;fillColor=none;spacing=5;spacingTop=-20;whiteSpace=wrap;overflow=hidden;rounded=0;" parent="1" vertex="1">
          <mxGeometry x="-1600" y="210" width="190" height="210" as="geometry" />
        </mxCell>
        <mxCell id="whTFck7CV-eDJRF1kxfW-40" value="Hangar" style="ellipse;whiteSpace=wrap;html=1;aspect=fixed;" parent="1" vertex="1">
          <mxGeometry x="-1390" y="455" width="190" height="190" as="geometry" />
        </mxCell>
        <mxCell id="whTFck7CV-eDJRF1kxfW-42" value="&lt;h1&gt;Hangar&lt;br&gt;&lt;/h1&gt;&lt;div&gt;As a helper i can register my own drone and see it here in a list&lt;/div&gt;&lt;div&gt;I can also make the drone available to groups I am a part of&lt;/div&gt;&lt;div&gt;&lt;br&gt;&lt;/div&gt;&lt;div&gt;As a admin I also see all the group available drones&lt;br&gt;&lt;/div&gt;&lt;p&gt;&lt;br&gt;&lt;/p&gt;&lt;div&gt;&lt;br&gt;&lt;/div&gt;&lt;div&gt;&lt;br&gt;&lt;/div&gt;" style="text;html=1;strokeColor=none;fillColor=none;spacing=5;spacingTop=-20;whiteSpace=wrap;overflow=hidden;rounded=0;" parent="1" vertex="1">
          <mxGeometry x="-1590" y="500" width="190" height="210" as="geometry" />
        </mxCell>
        <mxCell id="whTFck7CV-eDJRF1kxfW-73" style="edgeStyle=orthogonalEdgeStyle;rounded=0;orthogonalLoop=1;jettySize=auto;html=1;entryX=0;entryY=0.5;entryDx=0;entryDy=0;" parent="1" source="whTFck7CV-eDJRF1kxfW-43" target="whTFck7CV-eDJRF1kxfW-72" edge="1">
          <mxGeometry relative="1" as="geometry" />
        </mxCell>
        <mxCell id="whTFck7CV-eDJRF1kxfW-43" value="&lt;div&gt;mark self as active helper for rescue date&lt;br&gt;&lt;/div&gt;" style="rounded=0;whiteSpace=wrap;html=1;" parent="1" vertex="1">
          <mxGeometry x="1230" y="-80" width="120" height="60" as="geometry" />
        </mxCell>
        <mxCell id="whTFck7CV-eDJRF1kxfW-45" style="edgeStyle=orthogonalEdgeStyle;rounded=0;orthogonalLoop=1;jettySize=auto;html=1;entryX=0.5;entryY=0;entryDx=0;entryDy=0;" parent="1" source="whTFck7CV-eDJRF1kxfW-44" target="whTFck7CV-eDJRF1kxfW-13" edge="1">
          <mxGeometry relative="1" as="geometry" />
        </mxCell>
        <mxCell id="whTFck7CV-eDJRF1kxfW-46" style="edgeStyle=orthogonalEdgeStyle;rounded=0;orthogonalLoop=1;jettySize=auto;html=1;entryX=1;entryY=0.5;entryDx=0;entryDy=0;" parent="1" source="whTFck7CV-eDJRF1kxfW-44" target="whTFck7CV-eDJRF1kxfW-40" edge="1">
          <mxGeometry relative="1" as="geometry" />
        </mxCell>
        <mxCell id="whTFck7CV-eDJRF1kxfW-47" style="edgeStyle=orthogonalEdgeStyle;rounded=0;orthogonalLoop=1;jettySize=auto;html=1;entryX=1;entryY=0.5;entryDx=0;entryDy=0;" parent="1" source="whTFck7CV-eDJRF1kxfW-44" target="whTFck7CV-eDJRF1kxfW-38" edge="1">
          <mxGeometry relative="1" as="geometry" />
        </mxCell>
        <mxCell id="whTFck7CV-eDJRF1kxfW-49" style="edgeStyle=orthogonalEdgeStyle;rounded=0;orthogonalLoop=1;jettySize=auto;html=1;entryX=1;entryY=0.5;entryDx=0;entryDy=0;" parent="1" source="whTFck7CV-eDJRF1kxfW-44" target="whTFck7CV-eDJRF1kxfW-48" edge="1">
          <mxGeometry relative="1" as="geometry" />
        </mxCell>
        <mxCell id="whTFck7CV-eDJRF1kxfW-94" style="edgeStyle=orthogonalEdgeStyle;rounded=0;orthogonalLoop=1;jettySize=auto;html=1;entryX=0;entryY=0.5;entryDx=0;entryDy=0;" parent="1" source="whTFck7CV-eDJRF1kxfW-44" target="whTFck7CV-eDJRF1kxfW-93" edge="1">
          <mxGeometry relative="1" as="geometry" />
        </mxCell>
        <mxCell id="whTFck7CV-eDJRF1kxfW-95" style="edgeStyle=orthogonalEdgeStyle;rounded=0;orthogonalLoop=1;jettySize=auto;html=1;entryX=0;entryY=0.5;entryDx=0;entryDy=0;" parent="1" source="whTFck7CV-eDJRF1kxfW-44" target="whTFck7CV-eDJRF1kxfW-92" edge="1">
          <mxGeometry relative="1" as="geometry" />
        </mxCell>
        <mxCell id="whTFck7CV-eDJRF1kxfW-44" value="Home Page" style="ellipse;whiteSpace=wrap;html=1;aspect=fixed;" parent="1" vertex="1">
          <mxGeometry x="-900" y="-470" width="190" height="190" as="geometry" />
        </mxCell>
        <mxCell id="whTFck7CV-eDJRF1kxfW-48" value="Invites List" style="ellipse;whiteSpace=wrap;html=1;aspect=fixed;" parent="1" vertex="1">
          <mxGeometry x="-1390" y="-40" width="190" height="190" as="geometry" />
        </mxCell>
        <mxCell id="whTFck7CV-eDJRF1kxfW-50" value="&lt;h1&gt;Invites List&lt;br&gt;&lt;/h1&gt;&lt;p&gt;The User can see pending rescue date invites and decline/accept&lt;/p&gt;&lt;p&gt;&lt;br&gt;&lt;/p&gt;&lt;p&gt;&lt;br&gt;&lt;/p&gt;&lt;p&gt;&lt;br&gt;&lt;/p&gt;&lt;p&gt;&lt;br&gt;&lt;/p&gt;&lt;div&gt;&lt;br&gt;&lt;/div&gt;&lt;div&gt;&lt;br&gt;&lt;/div&gt;" style="text;html=1;strokeColor=none;fillColor=none;spacing=5;spacingTop=-20;whiteSpace=wrap;overflow=hidden;rounded=0;" parent="1" vertex="1">
          <mxGeometry x="-1590" width="190" height="210" as="geometry" />
        </mxCell>
        <mxCell id="whTFck7CV-eDJRF1kxfW-51" value="Rescue Dates List" style="ellipse;whiteSpace=wrap;html=1;aspect=fixed;" parent="1" vertex="1">
          <mxGeometry x="-1390" y="-260" width="190" height="190" as="geometry" />
        </mxCell>
        <mxCell id="whTFck7CV-eDJRF1kxfW-53" value="&lt;h1&gt;Rescue Dates List&lt;br&gt;&lt;/h1&gt;&lt;p&gt;The User can see accepted upcoming rescue dates where they were added as a helper&lt;br&gt;&lt;/p&gt;&lt;p&gt;&lt;br&gt;&lt;/p&gt;&lt;p&gt;&lt;br&gt;&lt;/p&gt;&lt;p&gt;&lt;br&gt;&lt;/p&gt;&lt;p&gt;&lt;br&gt;&lt;/p&gt;&lt;div&gt;&lt;br&gt;&lt;/div&gt;&lt;div&gt;&lt;br&gt;&lt;/div&gt;" style="text;html=1;strokeColor=none;fillColor=none;spacing=5;spacingTop=-20;whiteSpace=wrap;overflow=hidden;rounded=0;" parent="1" vertex="1">
          <mxGeometry x="-1600" y="-230" width="190" height="210" as="geometry" />
        </mxCell>
        <mxCell id="whTFck7CV-eDJRF1kxfW-54" style="edgeStyle=orthogonalEdgeStyle;rounded=0;orthogonalLoop=1;jettySize=auto;html=1;entryX=1.005;entryY=0.553;entryDx=0;entryDy=0;entryPerimeter=0;" parent="1" source="whTFck7CV-eDJRF1kxfW-44" target="whTFck7CV-eDJRF1kxfW-51" edge="1">
          <mxGeometry relative="1" as="geometry" />
        </mxCell>
        <mxCell id="whTFck7CV-eDJRF1kxfW-55" value="current location" style="text;html=1;strokeColor=none;fillColor=none;align=center;verticalAlign=middle;whiteSpace=wrap;rounded=0;" parent="1" vertex="1">
          <mxGeometry x="1315" y="-115" width="110" height="30" as="geometry" />
        </mxCell>
        <mxCell id="whTFck7CV-eDJRF1kxfW-69" style="edgeStyle=orthogonalEdgeStyle;rounded=0;orthogonalLoop=1;jettySize=auto;html=1;entryX=0;entryY=0.5;entryDx=0;entryDy=0;" parent="1" source="whTFck7CV-eDJRF1kxfW-56" target="whTFck7CV-eDJRF1kxfW-66" edge="1">
          <mxGeometry relative="1" as="geometry" />
        </mxCell>
        <mxCell id="whTFck7CV-eDJRF1kxfW-70" style="edgeStyle=orthogonalEdgeStyle;rounded=0;orthogonalLoop=1;jettySize=auto;html=1;entryX=0;entryY=0.5;entryDx=0;entryDy=0;" parent="1" source="whTFck7CV-eDJRF1kxfW-56" target="whTFck7CV-eDJRF1kxfW-67" edge="1">
          <mxGeometry relative="1" as="geometry" />
        </mxCell>
        <mxCell id="whTFck7CV-eDJRF1kxfW-56" value="Mark detection" style="rounded=0;whiteSpace=wrap;html=1;" parent="1" vertex="1">
          <mxGeometry x="1875" y="-85" width="120" height="60" as="geometry" />
        </mxCell>
        <mxCell id="whTFck7CV-eDJRF1kxfW-59" style="edgeStyle=orthogonalEdgeStyle;rounded=0;orthogonalLoop=1;jettySize=auto;html=1;entryX=0;entryY=0.5;entryDx=0;entryDy=0;" parent="1" source="whTFck7CV-eDJRF1kxfW-61" target="whTFck7CV-eDJRF1kxfW-56" edge="1">
          <mxGeometry relative="1" as="geometry" />
        </mxCell>
        <mxCell id="whTFck7CV-eDJRF1kxfW-80" style="edgeStyle=orthogonalEdgeStyle;rounded=0;orthogonalLoop=1;jettySize=auto;html=1;entryX=0;entryY=0.5;entryDx=0;entryDy=0;" parent="1" source="whTFck7CV-eDJRF1kxfW-57" target="whTFck7CV-eDJRF1kxfW-79" edge="1">
          <mxGeometry relative="1" as="geometry" />
        </mxCell>
        <mxCell id="whTFck7CV-eDJRF1kxfW-57" value="new detection is discovered by the aircraft" style="rounded=0;whiteSpace=wrap;html=1;" parent="1" vertex="1">
          <mxGeometry x="1425" y="-85" width="120" height="60" as="geometry" />
        </mxCell>
        <mxCell id="whTFck7CV-eDJRF1kxfW-58" style="edgeStyle=orthogonalEdgeStyle;rounded=0;orthogonalLoop=1;jettySize=auto;html=1;entryX=0.003;entryY=0.583;entryDx=0;entryDy=0;entryPerimeter=0;" parent="1" source="whTFck7CV-eDJRF1kxfW-43" target="whTFck7CV-eDJRF1kxfW-57" edge="1">
          <mxGeometry relative="1" as="geometry" />
        </mxCell>
        <mxCell id="whTFck7CV-eDJRF1kxfW-60" value="&lt;div&gt;mark self as inactive for rescue date&lt;br&gt;&lt;/div&gt;" style="rounded=0;whiteSpace=wrap;html=1;" parent="1" vertex="1">
          <mxGeometry x="1425" y="10" width="120" height="60" as="geometry" />
        </mxCell>
        <mxCell id="whTFck7CV-eDJRF1kxfW-62" value="" style="edgeStyle=orthogonalEdgeStyle;rounded=0;orthogonalLoop=1;jettySize=auto;html=1;entryX=0;entryY=0.5;entryDx=0;entryDy=0;" parent="1" source="whTFck7CV-eDJRF1kxfW-57" target="whTFck7CV-eDJRF1kxfW-61" edge="1">
          <mxGeometry relative="1" as="geometry">
            <mxPoint x="1640" y="-50" as="sourcePoint" />
            <mxPoint x="1925" y="20" as="targetPoint" />
          </mxGeometry>
        </mxCell>
        <mxCell id="whTFck7CV-eDJRF1kxfW-61" value="Assign yourself to the detection" style="rounded=0;whiteSpace=wrap;html=1;" parent="1" vertex="1">
          <mxGeometry x="1655" y="-85" width="120" height="60" as="geometry" />
        </mxCell>
        <mxCell id="whTFck7CV-eDJRF1kxfW-63" value="&lt;div&gt;detection location&lt;/div&gt;&lt;div&gt;assigned helpers (0/1)&lt;/div&gt;&lt;div&gt;confirmed&lt;br&gt;&lt;/div&gt;" style="text;html=1;strokeColor=none;fillColor=none;align=center;verticalAlign=middle;whiteSpace=wrap;rounded=0;" parent="1" vertex="1">
          <mxGeometry x="1505" y="-115" width="159" height="30" as="geometry" />
        </mxCell>
        <mxCell id="whTFck7CV-eDJRF1kxfW-64" value="&lt;div&gt;assigned helpers (1/1)&lt;/div&gt;&lt;div&gt;confirmed = NULL&lt;br&gt;&lt;/div&gt;" style="text;html=1;strokeColor=none;fillColor=none;align=center;verticalAlign=middle;whiteSpace=wrap;rounded=0;" parent="1" vertex="1">
          <mxGeometry x="1729" y="-120" width="159" height="30" as="geometry" />
        </mxCell>
        <mxCell id="whTFck7CV-eDJRF1kxfW-65" value="&lt;div&gt;assigned helpers (1/3)&lt;/div&gt;&lt;div&gt;confirmed = True&lt;br&gt;&lt;/div&gt;" style="text;html=1;strokeColor=none;fillColor=none;align=center;verticalAlign=middle;whiteSpace=wrap;rounded=0;" parent="1" vertex="1">
          <mxGeometry x="2115" y="-160" width="159" height="30" as="geometry" />
        </mxCell>
        <mxCell id="whTFck7CV-eDJRF1kxfW-66" value="Confirmed" style="rounded=0;whiteSpace=wrap;html=1;" parent="1" vertex="1">
          <mxGeometry x="2070" y="-130" width="120" height="60" as="geometry" />
        </mxCell>
        <mxCell id="whTFck7CV-eDJRF1kxfW-67" value="False positive" style="rounded=0;whiteSpace=wrap;html=1;" parent="1" vertex="1">
          <mxGeometry x="2070" y="-25" width="120" height="60" as="geometry" />
        </mxCell>
        <mxCell id="whTFck7CV-eDJRF1kxfW-68" value="detection is deleted from map" style="text;html=1;strokeColor=none;fillColor=none;align=center;verticalAlign=middle;whiteSpace=wrap;rounded=0;" parent="1" vertex="1">
          <mxGeometry x="2130" y="-50" width="159" height="30" as="geometry" />
        </mxCell>
        <mxCell id="whTFck7CV-eDJRF1kxfW-71" style="edgeStyle=orthogonalEdgeStyle;rounded=0;orthogonalLoop=1;jettySize=auto;html=1;entryX=0.008;entryY=0.593;entryDx=0;entryDy=0;entryPerimeter=0;" parent="1" source="whTFck7CV-eDJRF1kxfW-43" target="whTFck7CV-eDJRF1kxfW-60" edge="1">
          <mxGeometry relative="1" as="geometry" />
        </mxCell>
        <mxCell id="whTFck7CV-eDJRF1kxfW-83" style="edgeStyle=orthogonalEdgeStyle;rounded=0;orthogonalLoop=1;jettySize=auto;html=1;entryX=1;entryY=0.5;entryDx=0;entryDy=0;" parent="1" source="whTFck7CV-eDJRF1kxfW-72" target="whTFck7CV-eDJRF1kxfW-66" edge="1">
          <mxGeometry relative="1" as="geometry">
            <Array as="points">
              <mxPoint x="2320" y="120" />
              <mxPoint x="2320" y="-100" />
            </Array>
          </mxGeometry>
        </mxCell>
        <mxCell id="whTFck7CV-eDJRF1kxfW-72" value="manually add detection" style="rounded=0;whiteSpace=wrap;html=1;" parent="1" vertex="1">
          <mxGeometry x="1425" y="90" width="120" height="60" as="geometry" />
        </mxCell>
        <mxCell id="whTFck7CV-eDJRF1kxfW-78" style="edgeStyle=orthogonalEdgeStyle;rounded=0;orthogonalLoop=1;jettySize=auto;html=1;entryX=0;entryY=0.5;entryDx=0;entryDy=0;" parent="1" source="whTFck7CV-eDJRF1kxfW-75" target="whTFck7CV-eDJRF1kxfW-76" edge="1">
          <mxGeometry relative="1" as="geometry" />
        </mxCell>
        <mxCell id="whTFck7CV-eDJRF1kxfW-85" style="edgeStyle=orthogonalEdgeStyle;rounded=0;orthogonalLoop=1;jettySize=auto;html=1;entryX=0;entryY=0.5;entryDx=0;entryDy=0;" parent="1" source="whTFck7CV-eDJRF1kxfW-75" target="whTFck7CV-eDJRF1kxfW-84" edge="1">
          <mxGeometry relative="1" as="geometry" />
        </mxCell>
        <mxCell id="whTFck7CV-eDJRF1kxfW-87" style="edgeStyle=orthogonalEdgeStyle;rounded=0;orthogonalLoop=1;jettySize=auto;html=1;entryX=0;entryY=0.5;entryDx=0;entryDy=0;" parent="1" source="whTFck7CV-eDJRF1kxfW-75" target="whTFck7CV-eDJRF1kxfW-86" edge="1">
          <mxGeometry relative="1" as="geometry" />
        </mxCell>
        <mxCell id="whTFck7CV-eDJRF1kxfW-89" style="edgeStyle=orthogonalEdgeStyle;rounded=0;orthogonalLoop=1;jettySize=auto;html=1;entryX=0;entryY=0.5;entryDx=0;entryDy=0;" parent="1" source="whTFck7CV-eDJRF1kxfW-75" target="whTFck7CV-eDJRF1kxfW-88" edge="1">
          <mxGeometry relative="1" as="geometry" />
        </mxCell>
        <mxCell id="whTFck7CV-eDJRF1kxfW-91" style="edgeStyle=orthogonalEdgeStyle;rounded=0;orthogonalLoop=1;jettySize=auto;html=1;entryX=0;entryY=0.5;entryDx=0;entryDy=0;" parent="1" source="whTFck7CV-eDJRF1kxfW-75" target="whTFck7CV-eDJRF1kxfW-90" edge="1">
          <mxGeometry relative="1" as="geometry" />
        </mxCell>
        <mxCell id="whTFck7CV-eDJRF1kxfW-75" value="&lt;div&gt;mark self as active pilot for rescue date&lt;br&gt;&lt;/div&gt;" style="rounded=0;whiteSpace=wrap;html=1;" parent="1" vertex="1">
          <mxGeometry x="1220" y="270" width="120" height="60" as="geometry" />
        </mxCell>
        <mxCell id="whTFck7CV-eDJRF1kxfW-76" value="start the aircraft" style="rounded=0;whiteSpace=wrap;html=1;" parent="1" vertex="1">
          <mxGeometry x="1420" y="270" width="120" height="60" as="geometry" />
        </mxCell>
        <mxCell id="whTFck7CV-eDJRF1kxfW-81" style="edgeStyle=orthogonalEdgeStyle;rounded=0;orthogonalLoop=1;jettySize=auto;html=1;entryX=0;entryY=0.5;entryDx=0;entryDy=0;" parent="1" source="whTFck7CV-eDJRF1kxfW-79" target="whTFck7CV-eDJRF1kxfW-56" edge="1">
          <mxGeometry relative="1" as="geometry" />
        </mxCell>
        <mxCell id="whTFck7CV-eDJRF1kxfW-79" value="Get assigned to detection by pilot" style="rounded=0;whiteSpace=wrap;html=1;" parent="1" vertex="1">
          <mxGeometry x="1657" y="-10" width="120" height="60" as="geometry" />
        </mxCell>
        <mxCell id="whTFck7CV-eDJRF1kxfW-84" value="RTH the aircraft" style="rounded=0;whiteSpace=wrap;html=1;" parent="1" vertex="1">
          <mxGeometry x="1420" y="340" width="120" height="60" as="geometry" />
        </mxCell>
        <mxCell id="whTFck7CV-eDJRF1kxfW-86" value="emergency land the aircraft" style="rounded=0;whiteSpace=wrap;html=1;" parent="1" vertex="1">
          <mxGeometry x="1420" y="420" width="120" height="60" as="geometry" />
        </mxCell>
        <mxCell id="whTFck7CV-eDJRF1kxfW-88" value="assign different user as pilot" style="rounded=0;whiteSpace=wrap;html=1;" parent="1" vertex="1">
          <mxGeometry x="1420" y="500" width="120" height="60" as="geometry" />
        </mxCell>
        <mxCell id="whTFck7CV-eDJRF1kxfW-90" value="inspect detection and assign it to helper" style="rounded=0;whiteSpace=wrap;html=1;" parent="1" vertex="1">
          <mxGeometry x="1420" y="580" width="120" height="60" as="geometry" />
        </mxCell>
        <mxCell id="whTFck7CV-eDJRF1kxfW-92" value="&lt;div&gt;Active Rescue Mission Organizer&lt;/div&gt;&lt;div&gt;&lt;br&gt;&lt;/div&gt;&lt;div&gt;Helper&lt;br&gt;&lt;/div&gt;" style="ellipse;whiteSpace=wrap;html=1;aspect=fixed;" parent="1" vertex="1">
          <mxGeometry x="-300" y="-1010" width="190" height="190" as="geometry" />
        </mxCell>
        <mxCell id="whTFck7CV-eDJRF1kxfW-93" value="&lt;div&gt;Active Rescue Mission Organizer&lt;/div&gt;&lt;div&gt;&lt;br&gt;&lt;/div&gt;&lt;div&gt;Pilot&lt;br&gt;&lt;/div&gt;" style="ellipse;whiteSpace=wrap;html=1;aspect=fixed;" parent="1" vertex="1">
          <mxGeometry x="-300" y="-760" width="190" height="190" as="geometry" />
        </mxCell>
        <mxCell id="svy9Xrr85BhirG92Fp_5-1" value="&lt;font style=&quot;font-size: 48px;&quot;&gt;&lt;u&gt;&lt;b&gt;User Action Flows&lt;/b&gt;&lt;br&gt;&lt;/u&gt;&lt;/font&gt;" style="text;html=1;align=center;verticalAlign=middle;resizable=0;points=[];autosize=1;strokeColor=none;fillColor=none;" vertex="1" parent="1">
          <mxGeometry x="1120" y="-490" width="440" height="70" as="geometry" />
        </mxCell>
        <mxCell id="svy9Xrr85BhirG92Fp_5-2" value="&lt;font style=&quot;font-size: 48px;&quot;&gt;&lt;u&gt;&lt;b&gt;Frontend Views&lt;br&gt;&lt;/b&gt;&lt;/u&gt;&lt;/font&gt;" style="text;html=1;align=center;verticalAlign=middle;resizable=0;points=[];autosize=1;strokeColor=none;fillColor=none;" vertex="1" parent="1">
          <mxGeometry x="-1030" y="-630" width="380" height="70" as="geometry" />
        </mxCell>
      </root>
    </mxGraphModel>
  </diagram>
</mxfile>
